<svg width="512" height="512" viewBox="0 0 512 512" fill="none" xmlns="http://www.w3.org/2000/svg">
  <!-- macOS风格圆角矩形背景 - 使用Homebrew橙色主题 -->
  <rect x="32" y="32" width="448" height="448" rx="96" ry="96" fill="#FBB040"/>
  
  <!-- 主要图标容器 - 放大尺寸 -->
  <g transform="translate(96, 96)">
    <!-- 啤酒杯主体 - 放大 -->
    <rect x="64" y="48" width="192" height="288" rx="16" ry="16" fill="#FFFFFF" opacity="0.95"/>
    
    <!-- 啤酒液体 - 放大 -->
    <rect x="76" y="88" width="168" height="240" rx="12" ry="12" fill="#D2691E" opacity="0.8"/>
    
    <!-- 啤酒泡沫层 - 放大 -->
    <ellipse cx="160" cy="48" rx="96" ry="24" fill="#FFFFFF"/>
    <circle cx="136" cy="24" r="12" fill="#FFFFFF" opacity="0.9"/>
    <circle cx="184" cy="32" r="10" fill="#FFFFFF" opacity="0.9"/>
    <circle cx="160" cy="16" r="8" fill="#FFFFFF" opacity="0.8"/>
    <circle cx="200" cy="40" r="6" fill="#FFFFFF" opacity="0.7"/>
    
    <!-- 杯子把手 - 放大 -->
    <path d="M256 128 Q288 128 288 160 Q288 192 256 192" stroke="#FFFFFF" stroke-width="12" fill="none" stroke-linecap="round" opacity="0.95"/>
    
    <!-- 终端符号 - 放大并使用深色以增强对比 -->
    <g transform="translate(104, 200)">
      <!-- 终端提示符箭头 -->
      <path d="M12 24 L36 48 L12 72" stroke="#2C3E50" stroke-width="8" stroke-linecap="round" stroke-linejoin="round"/>
      <!-- 光标 -->
      <rect x="48" y="64" width="48" height="6" rx="3" fill="#2C3E50"/>
    </g>
  </g>
  
  <!-- Homebrew标识性元素 - 简化的包装盒图标 -->
  <g transform="translate(384, 384)">
    <rect x="0" y="8" width="32" height="32" rx="4" fill="#FFFFFF" opacity="0.8"/>
    <path d="M8 8 L24 0 L40 8 L40 24 L24 32 L8 24 Z" fill="#FFFFFF" opacity="0.6"/>
  </g>
</svg>